<svg xmlns="http://www.w3.org/2000/svg" version="1.1" xmlns:xlink="http://www.w3.org/1999/xlink" xmlns:svgjs="http://svgjs.dev/svgjs" width="128" height="128" viewBox="0 0 128 128"><g transform="matrix(0.44782608695652176,0,0,0.44782608695652176,35.339226276730436,12.5)"><svg viewBox="0 0 125 225" data-background-color="#ffffff" preserveAspectRatio="xMidYMid meet" height="230" width="128" xmlns="http://www.w3.org/2000/svg" xmlns:xlink="http://www.w3.org/1999/xlink"><g id="tight-bounds" transform="matrix(1,0,0,1,-0.00020899999999812735,0)"><svg viewBox="0 0 125 225" height="225" width="125"><g><svg></svg></g><g><svg viewBox="0 0 125 225" height="225" width="125"><g><path transform="translate(-29.29403,21.95688) scale(1.81951,1.81951)" d="M20.6 59.9l0.8 1-0.4-1.3c-0.1-0.6-0.8 0.1-0.4 0.3M21.5 59.3c0.3 0.5 0.6 1 0.6 1.5 0 0.7 0.6 1 1.1 1.2-0.7-0.8-1.1-3-1.7-2.7M59.9 16.9c1.7 0 3.3-0.2 5.1 0.2 4.4 1.1 8.1 3.3 10.6 6.4l7 11.2c0.3 2.8 0.9 5.9 0.8 9.3 0.7 0 0.6-1 1.4-1.2-0.8 2-1.2 4.5-1.4 7.4-0.5-1.6 0-4 0.1-5.3-0.7 1.1-1.1 0.3-1.1-0.2 0.1-0.8-0.3-0.7-0.6-1-1.1-1-1.8-2.1-2.6-3.8 0.5-1.3 0.6-3.2-1-4.2-0.5-0.3-1.1-0.8-1.4-1.6-0.4-1.1-1.1-2.4-0.9-4.1 0.1-0.5-1.5 1.1-2.4 0.4-3.9-2.7-7.8-5.8-12.5-8.4-2.5 0-4.3-0.9-5.2-2-0.8-1-0.2-2.3 1-2.4 0.7 0 1.5-0.2 2.1 0.2 0.1-0.4 0.5-0.9 1-0.9M50 14.6l0.2 0.1c1 0.2 1.5 1.6 2.6 1.1 0 0.7 0.1 1.4-0.1 1.9-0.3 0.8-1.2 0.8-1.9 0.8-6.7-0.4-10.6 2.4-14.7 4.8-1.1 0.7-2.3 1.2-3.2 2.1-4.3 4-9 7.7-10.1 15.1l-0.9 8.2c-0.1 0.9-1.1 1.8-0.9 2.9l0.7 4.9c-0.7-0.7-1.1 0.2-0.9 0.6 0.1 0.3 0.5 1.3 1.1 0.4 0.8 1.5 1.6 4.4 2.7 5.7 3.4 4 7.8 7.6 11.4 11.2 0.9-0.2 1.6-0.2 1.8-0.8 0.3 0.6-0.3 1.2-0.8 1.3 1.6 1 3.4 1.9 5.8 2.1 3.1 0.2 6 0.7 8.7 1.4 1.4-0.4 2.8-0.6 4.3-0.7 0.5 0 0.8-0.8 1.4-1l0.1-1c0.6 0.9 0.5-0.3 0.1-0.9 0.7 0.6 0.9 1.1 1.2 1.5 0-0.3 0.8-1.4 0.8-0.1l0.2-1.3c0.3-0.2 0.4 1.1 0.7 0.2 0.3-0.9 0.9-0.2 1.5-0.5-0.2 0.4-0.1 1.2 0.6 0.7l0.8-0.7c0.5 1.2 1.3 0.7 1.7 0.5 4.4-2.8 8.8-6.1 13-9.4l-0.1 1.3 0.5-1.6c0.5 0.5 0.9 0.1 1.1-0.2 0.6-1 1.4-2 2.7-2.9-1.6 4.3-3.5 7.7-5.9 10.5l-1 1.2c0 0.7-0.2 1.6-1 1.7-0.4 0.1-1.2-0.2-1.8 0.4-0.3 0.4 0.7 1.2-0.1 0.6-0.7-0.5-1.4 0-2.2 0.2-0.6 0.2 0.4 0.8 0.6 1.2 0.2 0.4 0.4 0.8 0.3 1.3l-1.1-1.2c-1.3 0.7-2.1 2-3.2 3-0.5 0.4-0.3 1.1-0.3 1.7-0.7 0-1.5-0.2-1.9 0.2-0.3 0.4-0.2 1-0.2 1.6-1-0.1-1.1-1.6-2-1.3-0.9 0.2-1.9 0.3-2.7 0.8 0.6 1.2-1 0.5-0.8 0.7-1.5-0.9-2.8-1.6-4.4-1-3.4-1.1-7.6-0.6-10.7-0.2 0-0.5 0.1-1-0.1-1.1-0.2 0.5-0.8 0.3-0.7 0.3-1.9-1.3-3.8-2.1-5.8-3.2-1.8 0.2-3.5-0.7-4-1.2-1.4-1.3-3-0.6-4.3-0.9-2.8-0.7-3.8-3.6-4.1-5.6-0.2-1-1-1.4-1.3-1.3-1.3-4.2-3.3-8-4.9-11.9-0.4-1-0.3-2-0.3-3.1 0.5 0.2 1 0.1 0.9-0.6-0.5-3.3-1.7-5.8-3-8.2 0.7-3.4 0.8-7.4 2.4-10.4 1.4-2.7 4-4.1 5.8-6.4 0.6-0.8 0.6-1.9 1.2-2.6 2-2 4-4.1 6.2-5.9 1-0.8 2.2 0 3.7-0.3 0.5-1.8 2.5-3.4 4.4-2.9 0.8 0.2 2.4-1.9 2.9-2.1 0.8-0.3 0.4 0.8 0.4 1.5 1.9-1.5 4.5-2.3 6.9-3.2" fill="#41907a" fill-rule="nonzero" stroke="none" stroke-width="1" stroke-linecap="butt" stroke-linejoin="miter" stroke-miterlimit="10" stroke-dasharray="" stroke-dashoffset="0" font-family="none" font-weight="none" font-size="none" text-anchor="none" style="mix-blend-mode: normal" data-fill-palette-color="tertiary"></path></g><g transform="matrix(1,0,0,1,48.17785,99.21908075912408)"><svg viewBox="0 0 28.6443 26.561838481751835" height="26.561838481751835" width="28.6443"><g><svg viewBox="0 0 28.6443 26.561838481751835" height="26.561838481751835" width="28.6443"><g><svg viewBox="0 0 28.6443 26.561838481751835" height="26.561838481751835" width="28.6443"><g id="textblocktransform"><svg viewBox="0 0 28.6443 26.561838481751835" height="26.561838481751835" width="28.6443" id="textblock"><g><svg viewBox="0 0 28.6443 26.561838481751835" height="26.561838481751835" width="28.6443"><g><svg viewBox="0 0 28.6443 26.561838481751835" height="26.561838481751835" width="28.6443"><g><svg xmlns="http://www.w3.org/2000/svg" xmlns:xlink="http://www.w3.org/1999/xlink" version="1.1" x="0" y="0" viewBox="2.1749999999999985 10.600000000000001 85.62499999999999 79.4" style="enable-background:new 0 0 90 90;" xml:space="preserve" height="26.561838481751835" width="28.6443" class="icon-icon-0" data-fill-palette-color="accent" id="icon-0"><g fill="#6575a8" data-fill-palette-color="accent"><circle cx="35.6" cy="28.1" r="1.6" fill="#6575a8" data-fill-palette-color="accent"></circle><circle cx="45.7" cy="28.1" r="1.6" fill="#6575a8" data-fill-palette-color="accent"></circle><path d="M82.8 34.5H53.5c0.5-1.7 0.8-3.6 0.8-5.5 0-8.9-1.1-18.4-13.3-18.4-6 0-13.2 3.2-13.3 18.4 0 2.1 0.4 4.1 1 6-1.7 0.8-2.9 2.5-2.9 4.5v5.9c-4.7 1.8-8.9 5.7-8.9 12.6v4.3h-12c-0.8 0-1.6 0.3-2.1 0.9-0.5 0.7-0.7 1.5-0.6 2.3L6 86.8c0.1 0.5 0.2 0.9 0.5 1.3-0.4 0.1-0.7 0.5-0.7 0.9 0 0.5 0.4 0.9 0.9 1l0 0h0.1 9.1 2 22.5 23.7 9 0.3c0.1 0 0.2 0 0.2-0.1 1.4-0.3 2.5-1.5 2.5-2.9 0-1.6-1.3-3-3-3h-7.7v-6.1h17.4c2.7 0 5-2.2 5-5V39.5C87.8 36.7 85.5 34.5 82.8 34.5zM33.9 20.4c-0.7 1-1.6 1.6-2.3 1.6-0.4 0-0.6-0.1-0.8-0.4 0-0.1-0.1-0.1-0.1-0.1 0.4-1.5 0.9-2.8 1.5-3.9C32.5 18.6 33.1 19.5 33.9 20.4zM36 19.7c-0.1-0.1-0.2-0.2-0.3-0.3-1.1-1.2-1.8-2.5-2-3.9 0.4-0.4 0.8-0.8 1.2-1.1 0.6 1.8 1.9 3.4 3.8 4.6 2.1 1.3 4.6 2 7.3 2 1.8 0 3.7-0.3 5.5-1 0.2 0.6 0.3 1.2 0.4 1.9C47 23.7 41.5 23.4 37.7 21 37 20.6 36.5 20.1 36 19.7zM38.6 12.8c1.7 3.4 5 4.3 8.2 4.3 1.2 0 2.3-0.2 3.4-0.3 0.2 0.4 0.4 0.8 0.6 1.2-4 1.4-8.1 1.1-11.2-0.8-1.6-1.1-2.7-2.5-3-3.9C37.3 13.2 37.9 13 38.6 12.8zM41.1 12.6c3.4 0 5.9 0.8 7.6 2.3-4.7 0.4-6.7-0.7-7.7-2.3C41 12.6 41 12.6 41.1 12.6zM29.9 29c0-1.9 0.1-3.7 0.3-5.2 0.4 0.2 0.9 0.3 1.4 0.3 0.1 0 0.1 0 0.1 0 1.4-0.1 2.7-1 3.7-2.3 0.4 0.3 0.8 0.6 1.3 0.9 2.6 1.6 5.7 2.4 8.9 2.4 2.2 0 4.5-0.4 6.6-1.1 0.1 1.5 0.2 3.2 0.2 5 0.1 1.9-0.2 3.8-0.8 5.5H30.8c0 0 0 0-0.1 0C30.2 32.8 29.9 30.9 29.9 29zM4.2 65.2c-0.1-0.3 0-0.5 0.1-0.6 0.1-0.1 0.3-0.2 0.5-0.2h14.6c0.6 0 1.2 0.5 1.3 1.1l3.8 21.3c0.1 0.3 0 0.5-0.1 0.6-0.1 0.1-0.3 0.2-0.5 0.2h-7.6l2-11.8v-0.2c0-1.6-1.5-2.9-2.7-2.9h-3.9c-1.2 0-2.6 1.2-2.7 2.8l-1.4 8.8L4.2 65.2zM14.1 87.6H9.3c-0.1 0-0.1 0-0.2 0l1.8-11.8v-0.2c0-0.4 0.5-0.8 0.6-0.8h3.9c0.2 0.1 0.6 0.4 0.6 0.8L14.1 87.6zM73.1 86c0.5 0 0.9 0.4 0.9 0.9s-0.4 0.9-0.9 0.9H40.4c-0.5 0-0.9-0.4-0.9-0.9s0.4-0.9 0.9-0.9h7.8 17.2H73.1zM40.4 84c-1.6 0-3 1.3-3 3 0 0.4 0.1 0.7 0.2 1H26.4c0.2-0.5 0.3-1.1 0.2-1.6l-3.8-21.3c-0.2-1.6-1.7-2.8-3.3-2.8h-0.6V58c0-6.1 3.8-9 6.9-10.3v25.2c0 2.8 2.3 5 5 5h17.4V84H40.4zM50.3 83.9l0-27.2c0-1.6 1.5-2.9 2.4-2.9h8.2c1 0 2.4 1.3 2.4 2.9v27.2H50.3zM85.7 72.9c0 1.6-1.3 2.9-2.9 2.9H65.4V56.7c0-2.8-2.5-5-4.5-5h-8.2c-2.1 0-4.5 2.2-4.5 5v19.1H30.8c-1.6 0-2.9-1.3-2.9-2.9V39.5c0-1.6 1.3-2.9 2.9-2.9h52c1.6 0 2.9 1.3 2.9 2.9V72.9z" fill="#6575a8" data-fill-palette-color="accent"></path></g></svg></g></svg></g></svg></g></svg></g></svg></g><g></g></svg></g></svg></g></svg></g><defs></defs></svg><rect width="125" height="225" fill="none" stroke="none" visibility="hidden"></rect></g></svg></g></svg>