<?xml version="1.0" standalone="no"?>
<!DOCTYPE svg PUBLIC "-//W3C//DTD SVG 20010904//EN"
 "http://www.w3.org/TR/2001/REC-SVG-20010904/DTD/svg10.dtd">
<svg version="1.0" xmlns="http://www.w3.org/2000/svg"
 width="700.000000pt" height="700.000000pt" viewBox="0 0 700.000000 700.000000"
 preserveAspectRatio="xMidYMid meet">
<metadata>
Created by potrace 1.14, written by Peter Selinger 2001-2017
</metadata>
<g transform="translate(0.000000,700.000000) scale(0.100000,-0.100000)"
fill="#000000" stroke="none">
<path d="M3870 4953 c-128 -15 -331 -78 -461 -143 -273 -138 -514 -380 -651
-655 -45 -90 -108 -258 -108 -289 0 -40 17 -8 48 87 166 518 619 897 1171 977
118 18 390 7 501 -19 277 -64 513 -194 710 -391 204 -204 332 -444 396 -740
29 -133 27 -430 -4 -569 -129 -573 -549 -991 -1122 -1117 -120 -27 -448 -27
-570 -1 -287 62 -523 189 -731 397 -173 172 -289 360 -356 577 -26 86 -43 116
-43 77 0 -31 63 -199 108 -289 139 -278 377 -517 655 -657 107 -53 290 -113
410 -133 114 -19 337 -21 447 -5 632 95 1124 574 1231 1198 136 798 -406 1558
-1206 1687 -83 14 -335 18 -425 8z"/>
<path d="M2690 3634 c-14 -10 -49 -40 -78 -68 l-52 -50 -73 3 c-80 3 -148 -11
-186 -39 -23 -17 -25 -16 -58 6 -19 12 -39 24 -45 26 -6 2 -8 9 -4 16 11 17
87 68 116 77 l25 7 -26 -28 c-31 -34 -40 -56 -30 -73 6 -8 13 -4 26 16 10 15
29 40 43 55 49 54 -8 78 -93 39 -43 -19 -98 -76 -92 -95 2 -6 19 -21 38 -34
44 -30 46 -37 15 -57 -26 -18 -95 -23 -133 -11 -34 11 -28 -11 7 -29 39 -20
88 -19 134 4 37 19 38 19 57 0 43 -43 163 -16 236 53 25 24 37 29 57 24 22 -5
26 -12 26 -40 0 -19 8 -44 18 -55 17 -22 17 -21 17 26 0 38 8 62 40 117 22 37
46 79 53 92 10 19 19 23 34 18 14 -4 18 -2 14 5 -10 16 -58 13 -86 -5z m-8
-51 c-21 -27 -47 -61 -57 -76 -16 -25 -20 -27 -33 -13 -14 14 -14 18 4 37 21
24 113 99 121 99 3 0 -13 -21 -35 -47z m-194 -137 c-54 -47 -141 -70 -178 -46
-40 25 76 78 175 79 l40 0 -37 -33z"/>
<path d="M2953 3635 c-159 -49 -247 -191 -151 -241 41 -21 121 -15 175 14 40
20 41 20 46 1 6 -24 33 -24 96 0 48 18 49 18 54 0 6 -24 44 -25 69 -2 17 15
18 14 18 -15 0 -18 5 -32 11 -32 5 0 7 5 4 10 -11 18 15 78 61 140 24 33 44
62 44 65 0 3 -9 5 -20 5 -13 0 -30 -16 -48 -42 -24 -38 -31 -43 -59 -40 -25 3
-40 -5 -73 -34 l-41 -37 7 28 c5 21 3 31 -10 40 -23 18 -53 8 -109 -36 -74
-59 -182 -74 -229 -32 -24 21 -23 50 4 89 55 81 228 148 228 89 0 -19 -80 -71
-123 -81 -23 -5 -27 -8 -15 -15 34 -19 171 43 184 83 5 16 1 27 -16 40 -26 21
-49 22 -107 3z m182 -165 c0 -8 -11 -17 -24 -18 -13 -2 -26 -12 -28 -23 -5
-19 -33 -27 -33 -10 0 5 12 24 26 41 27 31 59 37 59 10z m135 0 c0 -21 -33
-60 -50 -60 -20 0 -9 39 16 59 33 26 34 26 34 1z"/>
<path d="M3698 3640 c-43 -13 -91 -46 -116 -79 -15 -21 -31 -31 -50 -31 -25
-1 -26 -2 -9 -14 17 -13 16 -15 -9 -45 -24 -29 -74 -46 -58 -20 4 7 -11 0 -32
-15 -43 -29 -74 -34 -74 -11 0 8 9 15 21 15 32 0 59 19 59 40 0 16 -7 20 -33
20 -54 0 -104 -62 -77 -95 18 -22 52 -18 93 10 21 13 39 20 42 14 4 -5 -1 -12
-9 -15 -9 -3 -16 -13 -16 -21 0 -13 7 -14 43 -7 73 15 206 11 217 -6 8 -13 10
-13 10 2 0 28 -45 50 -115 56 -36 2 -65 7 -65 11 1 20 42 51 66 51 15 0 54 7
86 16 99 28 153 101 92 124 -29 11 -29 11 -66 0z m56 -19 c12 -18 -41 -51
-122 -74 -49 -15 -52 -15 -43 1 29 55 145 106 165 73z m-348 -156 c-23 -17
-36 -19 -36 -6 0 11 18 19 40 20 11 0 10 -3 -4 -14z"/>
<path d="M3973 3607 c0 -43 -121 -197 -155 -197 -10 0 8 36 22 45 16 10 12 20
-20 38 -26 16 -33 16 -64 3 -37 -15 -56 -41 -56 -76 0 -28 25 -36 53 -17 21
14 24 13 34 -1 10 -16 13 -16 42 0 26 14 31 15 31 3 0 -18 21 -20 38 -3 9 9
12 9 12 0 0 -17 41 -15 68 4 28 19 55 71 48 91 -4 10 -16 14 -35 11 l-28 -4
18 42 c11 23 16 49 13 58 -7 19 -21 21 -21 3z m-190 -159 c-23 -23 -45 -39
-49 -35 -4 3 9 22 29 42 19 19 41 35 48 35 8 0 -5 -19 -28 -42z m199 6 c-5
-24 -31 -54 -49 -54 -20 0 -16 33 8 59 24 25 46 23 41 -5z"/>
</g>
</svg>
